<?xml version="1.0" encoding="UTF-8" standalone="no"?>
<svg
  xmlns="http://www.w3.org/2000/svg"
  width="174.0502mm"
  height="6.5973787mm"
  viewBox="0 0 174.0502 6.5973787">
  <g transform="translate(0.84652415,-107.73703)" fill="#000000" stroke="none">
    <g transform="matrix(0.73302812,0,0,0.76938187,-187.12363,-54.036092)">
      <path d="m 358.57,218.22 c 4.3635,-0.63392 3.5955,-6.61 0,-7.3393 -34.106,3.3914 -69.127,2.3193 -104.45,3.7983 35.154,1.5334 69.298,-0.57635 104.45,3.541 z" />
      <path
        d="m 378.21,215.04 c 0,2.2683 -1.9188,4.1071 -4.2857,4.1071 -2.3669,0 -4.2857,-1.8388 -4.2857,-4.1071 0,-2.2683 1.9188,-4.1072 4.2857,-4.1072 2.3669,0 4.2857,1.8388 4.2857,4.1072 z"
        transform="matrix(1,0,0,1.0439,-1.0871,-9.929)"
      />
      <path d="m 387.11,218.22 c -4.3635,-0.63392 -3.5955,-6.61 0,-7.3393 34.106,3.3914 69.127,2.3193 104.45,3.7983 -35.154,1.5334 -69.298,-0.57635 -104.45,3.541 z" />
    </g>
  </g>
</svg>

