<?xml version="1.0" encoding="UTF-8" standalone="no"?>
<svg
  xmlns="http://www.w3.org/2000/svg"
  version="1.0"
  width="88.514885mm"
  height="8.5218029mm"
  viewBox="0 0 88.514885 8.5218029"
  preserveAspectRatio="xMidYMid meet">
  <g transform="matrix(-1,0,0,1,88.514885,-15.957246)" fill="#000000" stroke="none">
    <path
       d="m -0.93544333,12.625222 c 0.2726808,-0.233726 2.00206683,1.28091 5.92765043,1.958226 2.6041246,0.406569 5.1930339,0.463867 9.0299309,0.352241 8.971036,-0.278479 13.186165,-1.008598 24.923219,-1.941181 1.438823,-0.115611 2.907725,-0.228027 4.389383,-0.330586 8.627358,-0.59718 15.980068,-0.722776 23.050587,-0.0411 10e-7,1e-6 2e-6,1e-6 3e-6,1e-6 4.764583,0.457497 8.682951,1.258523 12.084607,2.403284 6.564669,2.196798 9.300979,5.302388 9.060835,5.617199 -0.279719,0.366689 -3.542652,-1.85387 -9.723205,-3.282567 -3.342086,-0.766527 -7.006276,-1.235943 -11.660614,-1.463249 0,0 -3e-6,0 -3e-6,0 -6.980242,-0.33827 -13.879798,-0.03664 -22.550219,0.560594 -1.45884,0.100486 -2.940202,0.206668 -4.365751,0.308023 C 28.819624,17.515403 21.927356,18.136812 14.007754,17.819183 10.148097,17.671335 7.2053061,17.287701 4.5543269,16.497335 0.06182029,15.229761 -1.2039994,12.855413 -0.93544333,12.625222 Z"
       transform="translate(0.96963736,3.7954701)"
    />
  </g>
</svg>

