<?xml version="1.0" encoding="utf-8"?>
<!-- Generator: Adobe Illustrator 18.0.0, SVG Export Plug-In . SVG Version: 6.00 Build 0)  -->
<!DOCTYPE svg PUBLIC "-//W3C//DTD SVG 1.1//EN" "http://www.w3.org/Graphics/SVG/1.1/DTD/svg11.dtd">
<svg version="1.1" id="logo_enviedessence" xmlns="http://www.w3.org/2000/svg" xmlns:xlink="http://www.w3.org/1999/xlink" x="0px" y="0px"
	viewBox="0 0 300 300" fill="#4f493c" xml:space="preserve">
<path d="M17.4,199.3c20.7-20.2,45-34.1,73.2-41.7C66.2,135.5,48.8,109.3,40,77.8c29.1,2.7,55.8,12.4,79.9,29.3
	c0.9-15.4,3.6-30.4,8.4-45c4.8-14.7,12.1-28.1,20.4-41.1c17.9,25.9,27.3,54.7,29,86.1c24.2-16.9,50.8-26.6,79.9-29.3
	c-8.8,31.5-26.2,57.7-50.6,79.8c28.2,7.6,52.5,21.5,73.3,41.8c-0.3,0.2-0.7,0.6-1.1,0.7c-12.2,4.1-24.5,7.5-37.4,9
	c-9.2,1-18.4,0.7-27.5-0.4c-9.4-1.1-18.7-3.1-27.7-6c-2.1-0.7-4.2-1.4-6.2-2.1c-0.2-0.1-0.4-0.1-0.4-0.2c-0.4-0.4-0.8-0.9-1.1-1.3
	c0.6-0.1,1.2-0.5,1.7-0.4c12.6,3.2,25.5,4,38.4,2.9c9.1-0.8,17.8-3.3,26.3-6.7c1-0.4,1.9-0.8,3-1.3c-19.5-18.3-42-28.2-69-27.5
	c1.8-2.1,2.3-4.9,4.8-6.6c3.4-2.2,6.6-4.7,9.7-7.2c4.6-3.7,9.1-7.4,13.6-11.2c3.9-3.4,7.1-7.5,10.2-11.6
	c6.8-9.3,11.7-19.6,15.1-30.6c0-0.1,0-0.2,0-0.4c-0.7,0.1-1.4,0.1-2.1,0.2c-15.3,1.9-29.6,6.6-42.4,15.2c-5.3,3.6-9.9,8.1-14.8,12.2
	c-1.5,1.3-2.8,2.8-4.3,4.2c-0.3,0.3-0.8,0.4-1.2,0.3c-1.3-0.2-2.6-0.5-4.1-0.8c5.3-27.4,0.9-52.9-14.9-76.2
	c-8.2,12.4-13.9,25.8-15.9,40.6c-2,14.7-0.7,29.3,3,43.9c-1-1.1-1.8-2-2.6-2.9c-6.7-7.5-14-14.3-22.1-20.2c-5.7-4.2-12-7.2-18.6-9.8
	c-8.5-3.4-17.4-5.5-26.5-6.5c-0.3,0-0.5,0-1.2,0c1.9,4.7,3.5,9.3,5.5,13.7c4.5,10,10.3,19.1,18.1,26.8c4,4,8.4,7.5,12.9,10.9
	c5.8,4.4,11.9,8.4,18,12.5c1.6,1.1,3.3,1.9,5.1,3.2c-0.4,0.1-0.9,0.3-1.3,0.4c-5.5,0.3-11.1,0.4-16.6,0.9
	c-6.7,0.6-13.4,1.6-19.8,3.8c-13.7,4.8-25.8,12.4-36.4,22.4c-0.1,0.1-0.2,0.3-0.4,0.5c10.7,4.7,21.8,7.5,33.4,8.5
	c11.7,1,22.9-1,34.2-3.9c0.1,0.2,0.2,0.4,0.2,0.5c-0.1,3.4-0.2,6.9-0.3,10.3c0,0.6-0.1,1-0.8,1.1c-5.4,1.1-10.8,2.6-16.3,3.2
	c-6.1,0.6-12.4,0.7-18.6,0.6c-12.4-0.1-24.7-1.9-36.7-5c-9.2-2.4-18.1-5.8-26.9-9.4C17.6,199.5,17.5,199.4,17.4,199.3z"/>
<path d="M119.4,206.1c0.2-14.2,2.6-29.5,8.8-44c3.2-7.5,7.3-14.5,13.2-20.3c4.8-4.8,10.5-8.1,17.3-9.3c6.8-1.2,12.7,1,17.7,5.7
	c6.8,6.4,7.8,14.8,2.7,23.3c-4,6.8-9.3,12.7-14.9,18.3c-9.1,9.1-19.3,17-29.9,24.4c-0.9,0.6-1,1.2-0.8,2.2c1.8,6,3.2,12.1,5.2,18
	c1.9,5.5,5.2,10.2,9.9,13.7c4.3,3.3,9.1,4.2,14.4,2.7c8-2.2,14.2-7,19.1-13.5c2.6-3.4,4.7-7.1,6.4-10.9c0.6-1.4,1.5-2.1,2.6-1.8
	c1.1,0.3,1.8,1.7,1.7,3c0,0.3-0.1,0.6-0.2,0.9c-4.5,11.6-11,21.8-20.8,29.7c-6,4.8-12.8,7.8-20.4,8.4c-9.7,0.8-17.5-3-23-11
	c-3.7-5.3-5.5-11.4-6.9-17.6C120,221.4,119.4,214.5,119.4,206.1z M131.4,192.7c4-1.4,14.7-7.3,19.6-10.8c4.1-2.8,7.9-6,10.9-10
	c5.3-7,5.8-13,0.5-20.2c-2.4-3.3-5.7-5.2-10-4.8c-2.6,0.2-5,1.2-7.2,2.5c-6.2,3.6-9.9,9.3-12.1,15.9c-2.2,6.7-2.6,13.6-2.2,20.6
	C131.1,188.2,131.2,190.4,131.4,192.7z"/>
<path d="M76.9,145.6c-10.3-0.7-20.2,0.1-30.3,2.4c2.7,3.4,5.2,6.6,7.9,9.6c2.7,3,5.6,5.9,8.5,8.9c0,0-0.2,0.2-0.4,0.3
	c-3.7,1.9-7.3,3.8-11,5.6c-0.4,0.2-1.1,0.2-1.3,0c-4.7-4-9.5-7.9-13.9-12.1c-7-6.7-12.9-14.3-18.7-22.1c-0.5-0.6-0.9-1.2-1.4-1.8
	c0.1-0.1,0.2-0.2,0.3-0.2c12.2-2.4,24.5-4.4,37-4.4c3.6,0,7.3,0.3,10.9,0.4c0.9,0,1.5,0.4,2.1,1.1c3.1,3.8,6.3,7.5,9.5,11.3
	C76.3,144.8,76.5,145.1,76.9,145.6z"/>
<path d="M276.9,136c-2.2,2.9-4.2,5.5-6.3,8.1c-5.8,7.5-12.1,14.6-19.2,21c-2.2,2-4.5,3.8-6.8,5.7c-0.3,0.2-1,0.3-1.3,0.2
	c-3.9-1.8-7.9-3.7-11.8-5.6c-0.1,0-0.2-0.2-0.3-0.3c5.6-5.2,10.6-10.8,15.1-17.2c-8.4-2-16.8-2.7-25.7-2.6c0.9-1,1.6-1.7,2.3-2.6
	c2.8-3.4,5.6-6.7,8.3-10.1c0.5-0.6,1-0.9,1.8-0.9c9.7-0.5,19.3,0.2,28.8,1.7C266.7,134.2,271.6,135.1,276.9,136z"/>
<path d="M121.4,86.7c-5.3-4.3-10.7-8.4-16.7-11.7c-1,7-1,13.9-0.7,21c-2-0.9-3.8-1.8-5.6-2.6c-2.4-1.1-4.9-2.1-7.4-3.1
	c-0.9-0.3-1.2-0.9-1.3-1.7c-0.9-7.4-1.4-14.7-1.1-22.1c0.3-6.6,0.9-13.2,1.3-19.7c0-0.3,0.1-0.5,0.2-1c1.5,0.9,3,1.8,4.5,2.7
	c9,5.6,17.7,11.6,25.6,18.7c1.3,1.1,2.5,2.3,3.7,3.5c0.3,0.3,0.5,0.9,0.4,1.3c-0.9,4.8-1.8,9.6-2.7,14.3
	C121.6,86.4,121.5,86.5,121.4,86.7z"/>
<path d="M188.7,98.8c0.7-8,0.7-15.8-0.4-23.7c-4.5,2.5-8.7,5.3-12.8,8.5c-0.7-3.3-1.3-6.4-2-9.4c-0.4-1.7-0.9-3.4-1.4-5.1
	c-0.3-0.9-0.1-1.4,0.6-1.9c8.3-7.4,17.5-13.7,27-19.5c1-0.6,2-1.2,3.2-2c0.2,1.4,0.3,2.6,0.4,3.9c1.2,12.6,1.7,25.3,0.1,37.9
	c-0.5,4.1-0.5,4-4.3,5.8c-3.2,1.5-6.3,3.3-9.4,4.9C189.5,98.3,189.3,98.5,188.7,98.8z"/>
</svg>
